<?xml version="1.0" encoding="UTF-8"?>
<svg id="Layer_2" data-name="Layer 2" xmlns="http://www.w3.org/2000/svg" viewBox="0 0 292.14 59.37">
  <defs>
    <style>
      .cls-1 {
        font-family: Nunito-Bold, Nunito;
        font-size: 51.08px;
        font-variation-settings: 'wght' 700;
        font-weight: 700;
      }

      .cls-1, .cls-2 {
        fill: #ff7020;
      }

      .cls-3 {
        fill: #fff;
      }

      .cls-4 {
        letter-spacing: -.03em;
      }

      .cls-5 {
        letter-spacing: -.02em;
      }

      .cls-6 {
        letter-spacing: -.03em;
      }

      .cls-7 {
        letter-spacing: -.04em;
      }

      .cls-8 {
        letter-spacing: -.01em;
      }
    </style>
  </defs>
  <g id="Layer_1-2" data-name="Layer 1">
    <text class="cls-1" transform="translate(0 45.17)"><tspan class="cls-7" x="0" y="0">R</tspan><tspan class="cls-5" x="33.1" y="0">ehu</tspan><tspan class="cls-8" x="116.41" y="0">b</tspan><tspan class="cls-4" x="146.54" y="0">-</tspan><tspan class="cls-6" x="167.43" y="0">k</tspan><tspan class="cls-5" x="193.02" y="0">g</tspan></text>
    <path class="cls-3" d="M281.63,9.02l5.58-.18v19.73h-6.73l1.15-19.55Z"/>
    <ellipse class="cls-3" cx="264.46" cy="43.02" rx="6.64" ry="8.46"/>
    <path class="cls-3" d="M252.28,15.45c0,4.67-3.24,3.88-6.9,3.88s-6.11-1.23-6.11-2.91c0-4.67,2.71-5.29,6.37-5.29s6.64-.35,6.64,4.32Z"/>
    <path class="cls-2" d="M235.98.27c-.33.18-.76.57-.98.87l-.39.56v13.96l.34.87c1.23,3.13,3.87,5.22,7.04,5.54l.85.09.07,15.74.06,15.74.29.47c.17.26.55.64.85.85.48.34.65.38,1.54.38s1.06-.04,1.52-.35c.27-.2.65-.57.84-.85l.33-.48.07-15.74.07-15.75.85-.09c3.25-.33,6.1-2.65,7.1-5.76.29-.9.29-1.04.29-7.75V1.72l-.35-.51c-.57-.81-1.18-1.14-2.18-1.2-1.07-.05-1.84.3-2.43,1.13l-.39.56-.07,3.26-.07,3.28h-2.74l-.07-3.26c-.07-3.21-.07-3.26-.39-3.73-.55-.82-1.22-1.18-2.21-1.24-1.07-.05-1.84.3-2.43,1.13l-.39.56-.06,3.26-.07,3.28h-2.74l-.06-3.26-.07-3.26-.35-.51c-.58-.81-1.18-1.14-2.18-1.2-.72-.04-.97.01-1.45.26ZM251.14,14.16c0,.79-.64,1.66-1.57,2.16-.42.22-.78.25-3.92.25-3.29,0-3.49-.01-3.99-.29-.89-.47-1.5-1.34-1.5-2.12v-.39h10.98v.39Z"/>
    <path class="cls-2" d="M263.07.27c-.33.18-.76.57-.98.87l-.39.56-.07,14.5-.07,14.5-1.1.33c-2.74.78-4.8,2.42-5.95,4.72-1.01,2.04-1.18,2.89-1.18,5.85,0,2.17.04,2.69.27,3.64,1.28,5.03,4.12,8.47,8.08,9.78.77.25,1.19.3,2.68.3s1.91-.05,2.68-.3c3.96-1.31,6.8-4.75,8.08-9.78.23-.95.27-1.47.27-3.64s-.04-2.68-.29-3.58c-.98-3.6-3.32-6-6.84-7l-1.1-.33-.07-14.49-.07-14.5-.35-.51c-.57-.81-1.18-1.14-2.18-1.2-.72-.04-.97.01-1.45.26ZM266.95,36.4c1.46.49,2.42,1.63,2.78,3.26.25,1.13.1,3.97-.26,5.12-.68,2.13-1.97,3.93-3.37,4.63-.88.44-2.56.46-3.42.01-1.49-.77-2.69-2.43-3.42-4.71-.26-.86-.3-1.24-.3-3.12,0-2.09.01-2.16.38-2.97.65-1.4,1.99-2.32,3.74-2.55,0,0,3.07.05,3.88.31Z"/>
    <path class="cls-2" d="M288.26.22c-1.67.87-4.26,3.24-5.85,5.33-3.97,5.27-6.29,12.71-6.82,22.01-.2,3.41-.1,3.91.8,4.81.88.87,1.11.91,6.08.91h4.26v20.12l.3.55c.16.31.55.74.86.98.51.36.64.4,1.57.4s1.07-.04,1.53-.35c.27-.2.65-.57.84-.85l.33-.48V1.72l-.35-.51c-.58-.82-1.18-1.14-2.18-1.2-.65-.03-.98.01-1.35.21ZM286.72,18.45v9.23h-5.53l.09-1.34c.24-3.58,1.11-7.89,2.25-11.08.76-2.11,2.8-6.05,3.12-6.05.04,0,.07,4.15.07,9.23Z"/>
  </g>
</svg>