<?xml version="1.0" encoding="UTF-8"?>
<svg id="Layer_2" data-name="Layer 2" xmlns="http://www.w3.org/2000/svg" viewBox="0 0 150.4 29.8">
  <defs>
    <style>
      .cls-1 {
        font-family: Nunito-Black, Nunito;
        font-size: 26.31px;
        font-variation-settings: 'wght' 900;
        font-weight: 800;
      }

      .cls-1, .cls-2 {
        fill: #fff;
      }

      .cls-3 {
        letter-spacing: -.08em;
      }

      .cls-4 {
        letter-spacing: -.08em;
      }

      .cls-5 {
        letter-spacing: -.09em;
      }

      .cls-6 {
        letter-spacing: -.06em;
      }
    </style>
  </defs>
  <g id="Layer_1-2" data-name="Layer 1">
    <path class="cls-2" d="M122.2,1.2c-.2,0-.4.3-.5.4l-.2.3v7l.2.4c.6,1.6,1.9,2.6,3.5,2.8h.4v15.8l.2.2c0,.1.3.3.4.4.2.2.3.2.8.2s.5,0,.8-.2c.1,0,.3-.3.4-.4l.2-.2v-15.8h.4c1.6-.2,3.1-1.4,3.5-2.9.1-.4.1-.5.1-3.9V1.9l-.2-.3c-.3-.4-.6-.6-1.1-.6s-.9.1-1.2.6l-.2.3v3.2h-1.4v-1.6q0-1.6-.2-1.9c-.3-.4-.6-.6-1.1-.6s-.9.1-1.2.6l-.2.3v3.2h-1.4V1.9l-.2-.3c-.3-.4-.6-.6-1.1-.6-.4,0-.5,0-.7.1v.1ZM129.8,8.1c0,.4-.3.8-.8,1.1-.2.1-.4.1-2,.1s-1.7,0-2-.1c-.4-.2-.8-.7-.8-1.1v-.2h5.5v.2h.1Z"/>
    <path class="cls-2" d="M135.8,1.2c-.2,0-.4.3-.5.4l-.2.3v14.6l-.5.2c-1.4.4-2.4,1.2-3,2.4-.5,1-.6,1.4-.6,2.9s0,1.3.1,1.8c.6,2.5,2.1,4.2,4,4.9.4.1.6.1,1.3.1s1,0,1.3-.1c2-.7,3.4-2.4,4-4.9.1-.5.1-.7.1-1.8s0-1.3-.1-1.8c-.5-1.8-1.7-3-3.4-3.5l-.5-.2V2l-.2-.3c-.3-.4-.6-.6-1.1-.6-.4,0-.5,0-.7.1h0ZM137.7,19.3c.7.2,1.2.8,1.4,1.6.1.6,0,2-.1,2.6-.3,1.1-1,2-1.7,2.3-.4.2-1.3.2-1.7,0-.7-.4-1.3-1.2-1.7-2.4-.1-.4-.2-.6-.2-1.6s0-1.1.2-1.5c.3-.7,1-1.2,1.9-1.3,0,0,1.5,0,1.9.2v.1Z"/>
    <path class="cls-2" d="M148.4,1.2c-.8.4-2.1,1.6-2.9,2.7-2,2.6-3.1,6.4-3.4,11,0,1.7,0,2,.4,2.4s.6.5,3,.5h2.1v10.3c.2.2.4.4.6.5q.3.2.8.2t.8-.2c.1,0,.3-.3.4-.4l.2-.2V1.9l-.2-.3c-.3-.4-.6-.6-1.1-.6-.3,0-.5,0-.7.1v.1ZM147.6,10.3v4.6h-2.8v-.7c.2-1.8.6-3.9,1.2-5.5.4-1.1,1.4-3,1.6-3s0,2.1,0,4.6Z"/>
    <text class="cls-1" transform="translate(0 22.43)"><tspan class="cls-5" x="0" y="0">R</tspan><tspan class="cls-3" x="16.23" y="0">ehu</tspan><tspan class="cls-6" x="56.68" y="0">b</tspan><tspan class="cls-3" x="71.41" y="0">-</tspan><tspan class="cls-4" x="81.15" y="0">k</tspan><tspan class="cls-3" x="94.25" y="0">g</tspan></text>
  </g>
</svg>